<svg xmlns="http://www.w3.org/2000/svg" xmlns:xlink="http://www.w3.org/1999/xlink" width="500" zoomAndPan="magnify" viewBox="0 0 375 149.999998" height="200" preserveAspectRatio="xMidYMid meet" version="1.0"><defs><g/><clipPath id="97eb781a9c"><path d="M 187 6.59375 L 189 6.59375 L 189 38 L 187 38 Z M 187 6.59375 " clip-rule="nonzero"/></clipPath><clipPath id="04a4f96eb5"><path d="M 160 70 L 216 70 L 216 92.84375 L 160 92.84375 Z M 160 70 " clip-rule="nonzero"/></clipPath><clipPath id="a15c46d075"><path d="M 213 70 L 253.285156 70 L 253.285156 72 L 213 72 Z M 213 70 " clip-rule="nonzero"/></clipPath><clipPath id="11a74413b0"><path d="M 122.035156 70 L 162 70 L 162 72 L 122.035156 72 Z M 122.035156 70 " clip-rule="nonzero"/></clipPath><clipPath id="6762017ba0"><rect x="0" width="374" y="0" height="63"/></clipPath></defs><g clip-path="url(#97eb781a9c)"><path fill="#d6aa69" d="M 187.667969 37.746094 C 187.503906 37.746094 187.367188 37.691406 187.253906 37.578125 C 187.140625 37.464844 187.082031 37.328125 187.082031 37.164062 L 187.082031 7.171875 C 187.082031 7.011719 187.140625 6.875 187.253906 6.761719 C 187.367188 6.648438 187.503906 6.589844 187.667969 6.589844 C 187.828125 6.589844 187.964844 6.648438 188.078125 6.761719 C 188.191406 6.875 188.25 7.011719 188.25 7.171875 L 188.25 37.164062 C 188.25 37.328125 188.191406 37.464844 188.078125 37.578125 C 187.964844 37.691406 187.828125 37.746094 187.667969 37.746094 Z M 187.667969 37.746094 " fill-opacity="1" fill-rule="nonzero"/></g><path fill="#d6aa69" d="M 208.960938 65.597656 C 208.796875 65.597656 208.660156 65.539062 208.546875 65.425781 C 208.433594 65.3125 208.375 65.175781 208.375 65.015625 C 208.375 53.609375 199.085938 44.332031 187.667969 44.332031 C 176.246094 44.332031 166.957031 53.609375 166.957031 65.015625 C 166.957031 65.175781 166.898438 65.3125 166.785156 65.425781 C 166.671875 65.539062 166.535156 65.597656 166.375 65.597656 C 166.210938 65.597656 166.074219 65.539062 165.960938 65.425781 C 165.847656 65.3125 165.789062 65.175781 165.789062 65.015625 C 165.789062 52.964844 175.601562 43.164062 187.667969 43.164062 C 199.730469 43.164062 209.542969 52.96875 209.542969 65.019531 C 209.542969 65.179688 209.484375 65.316406 209.371094 65.425781 C 209.257812 65.539062 209.121094 65.597656 208.960938 65.597656 Z M 208.960938 65.597656 " fill-opacity="1" fill-rule="nonzero"/><path fill="#d6aa69" d="M 187.667969 86.597656 C 175.601562 86.597656 165.789062 76.792969 165.789062 64.746094 C 165.789062 64.585938 165.847656 64.449219 165.960938 64.332031 C 166.074219 64.21875 166.210938 64.164062 166.375 64.164062 C 166.535156 64.164062 166.671875 64.21875 166.785156 64.332031 C 166.898438 64.449219 166.957031 64.585938 166.957031 64.746094 C 166.957031 76.152344 176.246094 85.433594 187.667969 85.433594 C 199.085938 85.433594 208.375 76.152344 208.375 64.746094 C 208.375 64.585938 208.433594 64.449219 208.546875 64.332031 C 208.660156 64.21875 208.796875 64.164062 208.960938 64.164062 C 209.121094 64.164062 209.257812 64.21875 209.371094 64.332031 C 209.484375 64.449219 209.542969 64.585938 209.542969 64.746094 C 209.542969 76.796875 199.730469 86.597656 187.667969 86.597656 Z M 187.667969 86.597656 " fill-opacity="1" fill-rule="nonzero"/><g clip-path="url(#04a4f96eb5)"><path fill="#d6aa69" d="M 187.667969 92.835938 C 186.082031 92.835938 184.507812 92.703125 182.945312 92.441406 C 181.382812 92.175781 179.855469 91.78125 178.359375 91.257812 C 176.863281 90.734375 175.421875 90.089844 174.039062 89.324219 C 172.652344 88.558594 171.335938 87.683594 170.097656 86.695312 C 168.859375 85.710938 167.714844 84.625 166.65625 83.445312 C 165.601562 82.265625 164.652344 81.003906 163.808594 79.664062 C 162.96875 78.324219 162.242188 76.921875 161.636719 75.460938 C 161.03125 74 160.550781 72.496094 160.199219 70.953125 C 160.160156 70.796875 160.183594 70.648438 160.269531 70.507812 C 160.355469 70.367188 160.476562 70.28125 160.636719 70.246094 C 160.796875 70.207031 160.945312 70.234375 161.082031 70.324219 C 161.21875 70.410156 161.304688 70.535156 161.335938 70.695312 C 164.140625 83.046875 174.96875 91.671875 187.667969 91.671875 C 200.363281 91.671875 211.191406 83.046875 213.996094 70.695312 C 214.03125 70.535156 214.113281 70.410156 214.25 70.324219 C 214.390625 70.234375 214.539062 70.207031 214.695312 70.246094 C 214.855469 70.28125 214.976562 70.367188 215.0625 70.507812 C 215.148438 70.648438 215.171875 70.796875 215.132812 70.953125 C 214.78125 72.496094 214.300781 74 213.695312 75.460938 C 213.089844 76.921875 212.367188 78.324219 211.523438 79.664062 C 210.679688 81.003906 209.730469 82.265625 208.675781 83.445312 C 207.621094 84.625 206.472656 85.710938 205.234375 86.695312 C 203.996094 87.683594 202.683594 88.558594 201.296875 89.324219 C 199.910156 90.089844 198.46875 90.734375 196.972656 91.257812 C 195.476562 91.78125 193.949219 92.175781 192.386719 92.441406 C 190.824219 92.703125 189.25 92.835938 187.667969 92.835938 Z M 187.667969 92.835938 " fill-opacity="1" fill-rule="nonzero"/></g><g clip-path="url(#a15c46d075)"><path fill="#d6aa69" d="M 252.636719 71.410156 L 214.566406 71.410156 C 214.402344 71.410156 214.265625 71.355469 214.152344 71.238281 C 214.039062 71.125 213.980469 70.988281 213.980469 70.828125 C 213.980469 70.667969 214.039062 70.53125 214.152344 70.417969 C 214.265625 70.304688 214.402344 70.246094 214.566406 70.246094 L 252.636719 70.246094 C 252.796875 70.246094 252.9375 70.304688 253.050781 70.417969 C 253.164062 70.53125 253.222656 70.667969 253.222656 70.828125 C 253.222656 70.988281 253.164062 71.125 253.050781 71.238281 C 252.9375 71.355469 252.796875 71.410156 252.636719 71.410156 Z M 252.636719 71.410156 " fill-opacity="1" fill-rule="nonzero"/></g><g clip-path="url(#11a74413b0)"><path fill="#d6aa69" d="M 160.769531 71.410156 L 122.695312 71.410156 C 122.535156 71.410156 122.394531 71.355469 122.28125 71.238281 C 122.167969 71.125 122.113281 70.988281 122.113281 70.828125 C 122.113281 70.667969 122.167969 70.53125 122.28125 70.417969 C 122.394531 70.304688 122.535156 70.246094 122.695312 70.246094 L 160.769531 70.246094 C 160.929688 70.246094 161.066406 70.304688 161.179688 70.417969 C 161.292969 70.53125 161.351562 70.667969 161.351562 70.828125 C 161.351562 70.988281 161.292969 71.125 161.179688 71.238281 C 161.066406 71.355469 160.929688 71.410156 160.769531 71.410156 Z M 160.769531 71.410156 " fill-opacity="1" fill-rule="nonzero"/></g><path fill="#d6aa69" d="M 182.820312 38.171875 C 182.679688 38.171875 182.554688 38.125 182.445312 38.035156 C 182.339844 37.945312 182.273438 37.828125 182.25 37.691406 L 178.953125 19.023438 C 178.925781 18.863281 178.957031 18.71875 179.050781 18.585938 C 179.140625 18.453125 179.265625 18.375 179.425781 18.347656 C 179.585938 18.316406 179.730469 18.351562 179.863281 18.441406 C 179.992188 18.535156 180.074219 18.660156 180.101562 18.820312 L 183.394531 37.488281 C 183.421875 37.644531 183.390625 37.789062 183.300781 37.921875 C 183.207031 38.054688 183.082031 38.132812 182.921875 38.160156 C 182.890625 38.167969 182.855469 38.171875 182.820312 38.171875 Z M 182.820312 38.171875 " fill-opacity="1" fill-rule="nonzero"/><path fill="#d6aa69" d="M 173.71875 41.480469 C 173.492188 41.480469 173.324219 41.382812 173.210938 41.191406 L 163.722656 24.773438 C 163.644531 24.632812 163.625 24.484375 163.664062 24.332031 C 163.707031 24.175781 163.796875 24.058594 163.9375 23.976562 C 164.078125 23.894531 164.222656 23.878906 164.378906 23.917969 C 164.535156 23.960938 164.652344 24.050781 164.734375 24.191406 L 174.222656 40.605469 C 174.304688 40.746094 174.320312 40.894531 174.28125 41.050781 C 174.238281 41.203125 174.148438 41.320312 174.007812 41.402344 C 173.917969 41.453125 173.824219 41.480469 173.71875 41.480469 Z M 173.71875 41.480469 " fill-opacity="1" fill-rule="nonzero"/><path fill="#d6aa69" d="M 166.292969 47.703125 C 166.152344 47.703125 166.027344 47.65625 165.921875 47.566406 L 151.382812 35.378906 C 151.261719 35.277344 151.191406 35.144531 151.179688 34.984375 C 151.164062 34.828125 151.210938 34.683594 151.3125 34.5625 C 151.417969 34.441406 151.546875 34.371094 151.707031 34.355469 C 151.867188 34.34375 152.007812 34.386719 152.132812 34.488281 L 166.675781 46.671875 C 166.886719 46.847656 166.945312 47.0625 166.851562 47.320312 C 166.757812 47.574219 166.574219 47.703125 166.300781 47.703125 Z M 166.292969 47.703125 " fill-opacity="1" fill-rule="nonzero"/><path fill="#d6aa69" d="M 161.453125 56.082031 C 161.382812 56.082031 161.316406 56.070312 161.25 56.046875 L 143.417969 49.570312 C 143.265625 49.515625 143.15625 49.417969 143.085938 49.269531 C 143.019531 49.125 143.011719 48.976562 143.066406 48.824219 C 143.125 48.671875 143.222656 48.5625 143.371094 48.496094 C 143.515625 48.425781 143.664062 48.421875 143.816406 48.476562 L 161.648438 54.957031 C 161.78125 55.007812 161.882812 55.09375 161.957031 55.214844 C 162.027344 55.335938 162.050781 55.46875 162.023438 55.605469 C 162 55.746094 161.933594 55.859375 161.824219 55.953125 C 161.71875 56.042969 161.59375 56.089844 161.453125 56.089844 Z M 161.453125 56.082031 " fill-opacity="1" fill-rule="nonzero"/><path fill="#d6aa69" d="M 159.769531 65.613281 L 140.789062 65.613281 C 140.628906 65.613281 140.492188 65.554688 140.378906 65.441406 C 140.261719 65.328125 140.207031 65.191406 140.207031 65.03125 C 140.207031 64.871094 140.261719 64.734375 140.378906 64.617188 C 140.492188 64.503906 140.628906 64.449219 140.789062 64.449219 L 159.769531 64.449219 C 159.929688 64.449219 160.066406 64.503906 160.179688 64.617188 C 160.292969 64.734375 160.351562 64.871094 160.351562 65.03125 C 160.351562 65.191406 160.292969 65.328125 160.179688 65.441406 C 160.066406 65.554688 159.929688 65.613281 159.769531 65.613281 Z M 159.769531 65.613281 " fill-opacity="1" fill-rule="nonzero"/><path fill="#d6aa69" d="M 234.542969 65.613281 L 215.566406 65.613281 C 215.402344 65.613281 215.265625 65.554688 215.152344 65.441406 C 215.039062 65.328125 214.980469 65.191406 214.980469 65.03125 C 214.980469 64.871094 215.039062 64.734375 215.152344 64.617188 C 215.265625 64.503906 215.402344 64.449219 215.566406 64.449219 L 234.542969 64.449219 C 234.703125 64.449219 234.839844 64.503906 234.957031 64.617188 C 235.070312 64.734375 235.125 64.871094 235.125 65.03125 C 235.125 65.191406 235.070312 65.328125 234.957031 65.441406 C 234.839844 65.554688 234.703125 65.613281 234.542969 65.613281 Z M 234.542969 65.613281 " fill-opacity="1" fill-rule="nonzero"/><path fill="#d6aa69" d="M 213.882812 56.082031 C 213.742188 56.082031 213.617188 56.039062 213.507812 55.945312 C 213.398438 55.855469 213.332031 55.742188 213.308594 55.601562 C 213.285156 55.460938 213.304688 55.332031 213.378906 55.207031 C 213.449219 55.085938 213.550781 55 213.683594 54.953125 L 231.515625 48.46875 C 231.667969 48.414062 231.816406 48.421875 231.960938 48.488281 C 232.105469 48.558594 232.207031 48.667969 232.261719 48.816406 C 232.316406 48.96875 232.3125 49.117188 232.242188 49.261719 C 232.175781 49.410156 232.066406 49.507812 231.914062 49.5625 L 214.082031 56.046875 C 214.015625 56.070312 213.949219 56.082031 213.882812 56.082031 Z M 213.882812 56.082031 " fill-opacity="1" fill-rule="nonzero"/><path fill="#d6aa69" d="M 209.039062 47.703125 C 208.765625 47.703125 208.582031 47.574219 208.488281 47.320312 C 208.394531 47.0625 208.453125 46.847656 208.664062 46.671875 L 223.203125 34.488281 C 223.324219 34.386719 223.464844 34.34375 223.625 34.355469 C 223.785156 34.371094 223.917969 34.441406 224.019531 34.5625 C 224.121094 34.683594 224.167969 34.828125 224.152344 34.984375 C 224.140625 35.144531 224.074219 35.277344 223.949219 35.378906 L 209.414062 47.566406 C 209.304688 47.65625 209.179688 47.703125 209.039062 47.703125 Z M 209.039062 47.703125 " fill-opacity="1" fill-rule="nonzero"/><path fill="#d6aa69" d="M 201.617188 41.480469 C 201.511719 41.480469 201.414062 41.453125 201.324219 41.402344 C 201.183594 41.320312 201.09375 41.203125 201.054688 41.046875 C 201.011719 40.894531 201.03125 40.746094 201.109375 40.605469 L 210.601562 24.191406 C 210.675781 24.042969 210.796875 23.945312 210.953125 23.902344 C 211.113281 23.855469 211.265625 23.871094 211.410156 23.957031 C 211.550781 24.039062 211.644531 24.160156 211.683594 24.320312 C 211.722656 24.480469 211.699219 24.632812 211.609375 24.773438 L 202.121094 41.191406 C 202.007812 41.382812 201.839844 41.480469 201.617188 41.480469 Z M 201.617188 41.480469 " fill-opacity="1" fill-rule="nonzero"/><path fill="#d6aa69" d="M 192.511719 38.171875 C 192.476562 38.171875 192.441406 38.167969 192.410156 38.160156 C 192.25 38.132812 192.125 38.054688 192.035156 37.921875 C 191.941406 37.789062 191.910156 37.644531 191.9375 37.488281 L 195.234375 18.820312 C 195.261719 18.660156 195.339844 18.535156 195.472656 18.441406 C 195.605469 18.351562 195.75 18.316406 195.910156 18.347656 C 196.066406 18.375 196.191406 18.453125 196.285156 18.585938 C 196.378906 18.71875 196.410156 18.863281 196.382812 19.023438 L 193.085938 37.691406 C 193.0625 37.828125 192.996094 37.945312 192.886719 38.035156 C 192.777344 38.125 192.652344 38.171875 192.511719 38.171875 Z M 192.511719 38.171875 " fill-opacity="1" fill-rule="nonzero"/><path fill="#d6aa69" d="M 178.125 39.429688 C 177.851562 39.429688 177.671875 39.300781 177.578125 39.046875 L 171.085938 21.230469 C 171.03125 21.082031 171.039062 20.933594 171.105469 20.785156 C 171.171875 20.640625 171.28125 20.539062 171.433594 20.484375 C 171.585938 20.429688 171.734375 20.4375 171.878906 20.503906 C 172.027344 20.570312 172.128906 20.679688 172.183594 20.832031 L 178.671875 38.652344 C 178.726562 38.804688 178.722656 38.953125 178.652344 39.097656 C 178.585938 39.242188 178.476562 39.34375 178.324219 39.398438 C 178.257812 39.421875 178.191406 39.429688 178.125 39.429688 Z M 178.125 39.429688 " fill-opacity="1" fill-rule="nonzero"/><path fill="#d6aa69" d="M 178.125 39.429688 C 177.851562 39.429688 177.671875 39.300781 177.578125 39.046875 L 167.308594 10.867188 C 167.246094 10.714844 167.25 10.5625 167.316406 10.410156 C 167.382812 10.261719 167.492188 10.15625 167.648438 10.097656 C 167.804688 10.042969 167.957031 10.050781 168.105469 10.125 C 168.253906 10.195312 168.351562 10.3125 168.402344 10.46875 L 178.671875 38.652344 C 178.726562 38.804688 178.722656 38.953125 178.652344 39.097656 C 178.585938 39.242188 178.476562 39.34375 178.324219 39.398438 C 178.257812 39.421875 178.191406 39.429688 178.125 39.429688 Z M 178.125 39.429688 " fill-opacity="1" fill-rule="nonzero"/><path fill="#d6aa69" d="M 169.738281 44.265625 C 169.558594 44.265625 169.40625 44.199219 169.292969 44.058594 L 149.988281 21.085938 C 149.886719 20.964844 149.84375 20.824219 149.859375 20.664062 C 149.875 20.503906 149.941406 20.375 150.066406 20.269531 C 150.1875 20.167969 150.328125 20.121094 150.488281 20.136719 C 150.648438 20.148438 150.78125 20.21875 150.882812 20.339844 L 170.175781 43.3125 C 170.335938 43.5 170.363281 43.707031 170.257812 43.933594 C 170.152344 44.15625 169.976562 44.269531 169.726562 44.269531 Z M 169.738281 44.265625 " fill-opacity="1" fill-rule="nonzero"/><path fill="#d6aa69" d="M 163.503906 51.679688 C 163.402344 51.679688 163.304688 51.65625 163.214844 51.601562 L 137.214844 36.613281 C 137.074219 36.535156 136.984375 36.414062 136.945312 36.261719 C 136.902344 36.105469 136.921875 35.957031 137 35.816406 C 137.082031 35.679688 137.199219 35.589844 137.355469 35.546875 C 137.511719 35.503906 137.660156 35.523438 137.796875 35.605469 L 163.796875 50.589844 C 163.914062 50.65625 163.996094 50.75 164.046875 50.871094 C 164.097656 50.996094 164.105469 51.117188 164.070312 51.246094 C 164.035156 51.375 163.96875 51.476562 163.863281 51.558594 C 163.757812 51.640625 163.640625 51.679688 163.507812 51.679688 Z M 163.503906 51.679688 " fill-opacity="1" fill-rule="nonzero"/><path fill="#d6aa69" d="M 160.191406 60.78125 C 160.160156 60.78125 160.125 60.78125 160.089844 60.773438 L 130.527344 55.558594 C 130.371094 55.53125 130.246094 55.449219 130.152344 55.320312 C 130.058594 55.1875 130.027344 55.042969 130.054688 54.882812 C 130.085938 54.726562 130.164062 54.601562 130.296875 54.507812 C 130.425781 54.414062 130.570312 54.382812 130.730469 54.410156 L 160.292969 59.617188 C 160.441406 59.644531 160.5625 59.714844 160.65625 59.835938 C 160.746094 59.957031 160.789062 60.089844 160.773438 60.242188 C 160.761719 60.390625 160.699219 60.519531 160.585938 60.621094 C 160.476562 60.722656 160.34375 60.773438 160.191406 60.773438 Z M 160.191406 60.78125 " fill-opacity="1" fill-rule="nonzero"/><path fill="#d6aa69" d="M 215.140625 60.78125 C 214.988281 60.78125 214.859375 60.730469 214.746094 60.628906 C 214.636719 60.527344 214.574219 60.402344 214.558594 60.25 C 214.546875 60.101562 214.585938 59.964844 214.679688 59.84375 C 214.769531 59.726562 214.890625 59.652344 215.039062 59.625 L 244.605469 54.417969 C 244.761719 54.390625 244.910156 54.421875 245.039062 54.515625 C 245.171875 54.605469 245.253906 54.734375 245.28125 54.890625 C 245.308594 55.050781 245.277344 55.195312 245.183594 55.324219 C 245.089844 55.457031 244.964844 55.539062 244.808594 55.566406 L 215.242188 60.765625 C 215.210938 60.773438 215.175781 60.78125 215.140625 60.78125 Z M 215.140625 60.78125 " fill-opacity="1" fill-rule="nonzero"/><path fill="#d6aa69" d="M 211.828125 51.679688 C 211.695312 51.679688 211.578125 51.640625 211.472656 51.5625 C 211.367188 51.480469 211.296875 51.378906 211.261719 51.25 C 211.230469 51.121094 211.238281 50.996094 211.289062 50.875 C 211.339844 50.753906 211.421875 50.660156 211.535156 50.59375 L 237.535156 35.59375 C 237.671875 35.515625 237.820312 35.496094 237.976562 35.535156 C 238.132812 35.578125 238.25 35.667969 238.332031 35.808594 C 238.410156 35.945312 238.429688 36.09375 238.390625 36.25 C 238.347656 36.40625 238.257812 36.523438 238.117188 36.601562 L 212.117188 51.609375 C 212.027344 51.660156 211.929688 51.683594 211.828125 51.679688 Z M 211.828125 51.679688 " fill-opacity="1" fill-rule="nonzero"/><path fill="#d6aa69" d="M 205.59375 44.265625 C 205.347656 44.261719 205.175781 44.148438 205.074219 43.925781 C 204.972656 43.703125 205 43.5 205.15625 43.3125 L 224.449219 20.339844 C 224.554688 20.21875 224.683594 20.148438 224.84375 20.136719 C 225.003906 20.121094 225.144531 20.167969 225.269531 20.269531 C 225.390625 20.375 225.460938 20.503906 225.472656 20.664062 C 225.488281 20.824219 225.445312 20.964844 225.34375 21.085938 L 206.046875 44.058594 C 205.929688 44.199219 205.777344 44.269531 205.59375 44.265625 Z M 205.59375 44.265625 " fill-opacity="1" fill-rule="nonzero"/><path fill="#d6aa69" d="M 197.207031 39.429688 C 197.140625 39.425781 197.074219 39.414062 197.007812 39.394531 C 196.859375 39.339844 196.75 39.238281 196.679688 39.09375 C 196.613281 38.949219 196.605469 38.800781 196.660156 38.652344 L 206.929688 10.472656 C 206.980469 10.316406 207.078125 10.203125 207.226562 10.128906 C 207.375 10.058594 207.527344 10.046875 207.683594 10.105469 C 207.839844 10.160156 207.949219 10.265625 208.015625 10.417969 C 208.082031 10.566406 208.085938 10.71875 208.023438 10.871094 L 197.753906 39.046875 C 197.664062 39.300781 197.480469 39.429688 197.207031 39.429688 Z M 197.207031 39.429688 " fill-opacity="1" fill-rule="nonzero"/><g transform="matrix(1, 0, 0, 1, 1, 87)"><g clip-path="url(#6762017ba0)"><g fill="#000000" fill-opacity="1"><g transform="translate(1.087815, 51.756244)"><g><path d="M 12.667969 0 L 0.238281 -34.164062 L 2.371094 -34.164062 L 13.714844 -2.894531 L 25.101562 -34.164062 L 27.234375 -34.164062 L 14.804688 0 Z M 12.667969 0 "/></g></g></g><g fill="#000000" fill-opacity="1"><g transform="translate(32.735993, 51.756244)"><g><path d="M 3.796875 -34.164062 L 5.789062 -34.164062 L 5.789062 0 L 3.796875 0 Z M 3.796875 -34.164062 "/></g></g></g><g fill="#000000" fill-opacity="1"><g transform="translate(46.496163, 51.756244)"><g><path d="M 3.796875 0 L 3.796875 -34.164062 L 5.789062 -34.164062 L 5.789062 -1.992188 L 22.777344 -1.992188 L 22.777344 0 Z M 3.796875 0 "/></g></g></g><g fill="#000000" fill-opacity="1"><g transform="translate(74.15869, 51.756244)"><g><path d="M 3.796875 0 L 3.796875 -34.164062 L 5.789062 -34.164062 L 5.789062 -1.992188 L 22.777344 -1.992188 L 22.777344 0 Z M 3.796875 0 "/></g></g></g><g fill="#000000" fill-opacity="1"><g transform="translate(101.821217, 51.756244)"><g><path d="M 0.949219 0 L 13.382812 -34.164062 L 15.515625 -34.164062 L 27.949219 0 L 25.8125 0 L 13.714844 -33.261719 L 15.136719 -33.261719 L 3.085938 0 Z M 5.695312 -8.875 L 5.695312 -10.769531 L 23.15625 -10.769531 L 23.15625 -8.875 Z M 5.695312 -8.875 "/></g></g></g><g fill="#000000" fill-opacity="1"><g transform="translate(134.892847, 51.756244)"><g/></g></g><g fill="#000000" fill-opacity="1"><g transform="translate(148.558124, 51.756244)"><g><path d="M 3.320312 0 L 3.320312 -34.164062 L 5.21875 -34.164062 L 19.738281 -2.421875 L 34.117188 -34.164062 L 36.109375 -34.164062 L 36.109375 -0.046875 L 34.117188 -0.046875 L 34.117188 -29.371094 L 20.832031 0 L 18.601562 0 L 5.3125 -29.371094 L 5.3125 0 Z M 3.320312 0 "/></g></g></g><g fill="#000000" fill-opacity="1"><g transform="translate(192.163279, 51.756244)"><g><path d="M 16.75 0.710938 C 13.347656 0.710938 10.515625 -0.046875 8.246094 -1.566406 C 5.976562 -3.085938 4.269531 -5.179688 3.132812 -7.851562 C 1.992188 -10.527344 1.421875 -13.601562 1.421875 -17.082031 C 1.421875 -20.5625 1.992188 -23.636719 3.132812 -26.3125 C 4.269531 -28.984375 5.976562 -31.078125 8.246094 -32.597656 C 10.515625 -34.117188 13.347656 -34.875 16.75 -34.875 C 20.152344 -34.875 22.984375 -34.117188 25.253906 -32.597656 C 27.523438 -31.078125 29.230469 -28.984375 30.367188 -26.3125 C 31.507812 -23.636719 32.078125 -20.5625 32.078125 -17.082031 C 32.078125 -13.601562 31.507812 -10.527344 30.367188 -7.851562 C 29.230469 -5.179688 27.523438 -3.085938 25.253906 -1.566406 C 22.984375 -0.046875 20.152344 0.710938 16.75 0.710938 Z M 16.75 -1.28125 C 19.675781 -1.28125 22.117188 -1.957031 24.070312 -3.308594 C 26.023438 -4.660156 27.488281 -6.523438 28.46875 -8.898438 C 29.449219 -11.269531 29.941406 -13.996094 29.941406 -17.082031 C 29.941406 -20.167969 29.449219 -22.898438 28.46875 -25.277344 C 27.488281 -27.660156 26.023438 -29.523438 24.070312 -30.867188 C 22.117188 -32.210938 19.675781 -32.882812 16.75 -32.882812 C 13.824219 -32.882812 11.390625 -32.210938 9.453125 -30.867188 C 7.515625 -29.523438 6.058594 -27.660156 5.078125 -25.277344 C 4.097656 -22.898438 3.589844 -20.167969 3.558594 -17.082031 C 3.527344 -13.996094 4 -11.269531 4.980469 -8.898438 C 5.960938 -6.523438 7.4375 -4.660156 9.40625 -3.308594 C 11.375 -1.957031 13.824219 -1.28125 16.75 -1.28125 Z M 16.75 -1.28125 "/></g></g></g><g fill="#000000" fill-opacity="1"><g transform="translate(229.837379, 51.756244)"><g><path d="M 3.320312 0 L 3.320312 -34.164062 L 15.894531 -34.164062 C 16.226562 -34.164062 16.566406 -34.152344 16.914062 -34.128906 C 17.265625 -34.105469 17.652344 -34.054688 18.078125 -33.972656 C 19.722656 -33.722656 21.152344 -33.125 22.359375 -32.183594 C 23.570312 -31.242188 24.503906 -30.054688 25.160156 -28.625 C 25.816406 -27.191406 26.144531 -25.621094 26.144531 -23.914062 C 26.144531 -21.480469 25.480469 -19.34375 24.152344 -17.507812 C 22.824219 -15.675781 21.019531 -14.503906 18.742188 -13.996094 L 18.363281 -13.664062 L 5.3125 -13.664062 L 5.3125 0 Z M 24.722656 0 L 17.984375 -13.902344 L 19.691406 -15.183594 L 27.09375 0 Z M 5.3125 -15.660156 L 15.894531 -15.660156 C 16.164062 -15.660156 16.484375 -15.675781 16.855469 -15.707031 C 17.226562 -15.738281 17.605469 -15.785156 17.984375 -15.847656 C 19.296875 -16.101562 20.398438 -16.625 21.292969 -17.414062 C 22.1875 -18.203125 22.863281 -19.164062 23.320312 -20.296875 C 23.78125 -21.425781 24.007812 -22.632812 24.007812 -23.914062 C 24.007812 -25.195312 23.78125 -26.402344 23.320312 -27.53125 C 22.863281 -28.664062 22.1875 -29.625 21.292969 -30.414062 C 20.398438 -31.207031 19.296875 -31.726562 17.984375 -31.980469 C 17.605469 -32.058594 17.226562 -32.113281 16.855469 -32.136719 C 16.484375 -32.160156 16.164062 -32.171875 15.894531 -32.171875 L 5.3125 -32.171875 Z M 5.3125 -15.660156 "/></g></g></g><g fill="#000000" fill-opacity="1"><g transform="translate(263.003915, 51.756244)"><g><path d="M 0.949219 0 L 13.382812 -34.164062 L 15.515625 -34.164062 L 27.949219 0 L 25.8125 0 L 13.714844 -33.261719 L 15.136719 -33.261719 L 3.085938 0 Z M 5.695312 -8.875 L 5.695312 -10.769531 L 23.15625 -10.769531 L 23.15625 -8.875 Z M 5.695312 -8.875 "/></g></g></g><g fill="#000000" fill-opacity="1"><g transform="translate(296.075531, 51.756244)"><g><path d="M 3.796875 -34.164062 L 5.789062 -34.164062 L 5.789062 0 L 3.796875 0 Z M 3.796875 -34.164062 "/></g></g></g><g fill="#000000" fill-opacity="1"><g transform="translate(309.835715, 51.756244)"><g><path d="M 3.320312 0 L 3.320312 -34.164062 L 15.894531 -34.164062 C 16.226562 -34.164062 16.566406 -34.152344 16.914062 -34.128906 C 17.265625 -34.105469 17.652344 -34.054688 18.078125 -33.972656 C 19.722656 -33.722656 21.152344 -33.125 22.359375 -32.183594 C 23.570312 -31.242188 24.503906 -30.054688 25.160156 -28.625 C 25.816406 -27.191406 26.144531 -25.621094 26.144531 -23.914062 C 26.144531 -21.480469 25.480469 -19.34375 24.152344 -17.507812 C 22.824219 -15.675781 21.019531 -14.503906 18.742188 -13.996094 L 18.363281 -13.664062 L 5.3125 -13.664062 L 5.3125 0 Z M 24.722656 0 L 17.984375 -13.902344 L 19.691406 -15.183594 L 27.09375 0 Z M 5.3125 -15.660156 L 15.894531 -15.660156 C 16.164062 -15.660156 16.484375 -15.675781 16.855469 -15.707031 C 17.226562 -15.738281 17.605469 -15.785156 17.984375 -15.847656 C 19.296875 -16.101562 20.398438 -16.625 21.292969 -17.414062 C 22.1875 -18.203125 22.863281 -19.164062 23.320312 -20.296875 C 23.78125 -21.425781 24.007812 -22.632812 24.007812 -23.914062 C 24.007812 -25.195312 23.78125 -26.402344 23.320312 -27.53125 C 22.863281 -28.664062 22.1875 -29.625 21.292969 -30.414062 C 20.398438 -31.207031 19.296875 -31.726562 17.984375 -31.980469 C 17.605469 -32.058594 17.226562 -32.113281 16.855469 -32.136719 C 16.484375 -32.160156 16.164062 -32.171875 15.894531 -32.171875 L 5.3125 -32.171875 Z M 5.3125 -15.660156 "/></g></g></g><g fill="#000000" fill-opacity="1"><g transform="translate(343.002224, 51.756244)"><g><path d="M 0.949219 0 L 13.382812 -34.164062 L 15.515625 -34.164062 L 27.949219 0 L 25.8125 0 L 13.714844 -33.261719 L 15.136719 -33.261719 L 3.085938 0 Z M 5.695312 -8.875 L 5.695312 -10.769531 L 23.15625 -10.769531 L 23.15625 -8.875 Z M 5.695312 -8.875 "/></g></g></g></g></g></svg>
